<?xml version="1.0" standalone="yes"?><svg xmlns="http://www.w3.org/2000/svg" xmlns:xlink="http://www.w3.org/1999/xlink" viewBox="0 0 400 500" style="zoom: 1;"><defs><style>.cls-1{fill:url(#PurpleGradient);}.cls-2{fill:#fff;}</style>
<linearGradient id="PurpleGradient" x1="47.47" y1="-104.53" x2="153.53" y2="1.53" gradientTransform="translate(89 138) rotate(-90)" gradientUnits="userSpaceOnUse">
    <stop offset="0" stop-color="#4d27a8"></stop>
    <stop offset="1" stop-color="#a166ff"></stop>
  </linearGradient>
</defs>
<title>Amazon-VPC-CNI-K8S</title>
<g>
  <g>
    <path fill="#003b49" d="M 136.93 436.046 C 136.93 436.046 125.728 449.884 102.224 449.884 C 71.362 449.884 50 425.887 50 395.024 C 50 363.833 71.362 340 102.224 340 C 125.728 340 136.93 353.674 136.93 353.674 L 131.329 361.362 C 131.329 361.362 120.621 349.445 102.444 349.445 C 77.567 349.445 60.379 370.093 60.379 395.024 C 60.379 419.736 77.567 440.384 102.444 440.384 C 120.676 440.384 131.329 428.468 131.329 428.468 L 136.93 436.046 Z M 271.527 447.413 L 263.839 447.413 L 194.92 359.275 L 194.92 447.413 L 184.926 447.413 L 184.926 342.306 L 192.998 342.306 L 261.532 429.895 L 261.532 342.306 L 271.527 342.306 L 271.527 447.413 Z M 350 447.413 L 340.006 447.413 L 340.006 342.306 L 350 342.306 L 350 447.413 Z"></path>
  </g>
</g>
<g transform="matrix(3.2, 0, 0, 3.2, -948.801819, -634.005127)">
  <g id="Reference" transform="matrix(1, 0, 0, 1, 321.500549, 213.751602)">
    <rect id="Purple_Gradient" data-name="Purple Gradient" class="cls-1" width="75" height="75" style="fill: url(#PurpleGradient);"></rect>
    <g id="VPC_Icon" data-name="VPC Icon">
      <path class="cls-2" d="M36.44,46.52h-14c-5.48,0-9.67-3.66-9.95-8.69,0-.21,0-.45,0-.69a9.23,9.23,0,0,1,6.79-9.28c0-.27,0-.53,0-.8a13.64,13.64,0,0,1,23.42-9.25,15.28,15.28,0,0,1,3.14,4.49,6.17,6.17,0,0,1,3.87-1.36c2.9,0,6,2.07,6.51,6.68a11,11,0,0,1,6.3,3.73l-1.57,1.23a9.53,9.53,0,0,0-5.81-3.16,1,1,0,0,1-.84-.93c-.23-3.83-2.47-5.55-4.59-5.55a4.31,4.31,0,0,0-3.42,1.74,1,1,0,0,1-.94.39,1,1,0,0,1-.79-.65,13.83,13.83,0,0,0-3.25-5.17,11.65,11.65,0,0,0-20,7.81,13.55,13.55,0,0,0,.08,1.43,1,1,0,0,1-.75,1.07c-2.27.56-6.1,2.3-6.1,7.58a4.87,4.87,0,0,0,0,.54c.22,4,3.57,6.84,8,6.84h14Z" style="fill: rgb(255, 255, 255);"></path>
      <path class="cls-2" d="M50.44,61.26c-11.86,0-12-13.33-12-13.46V35.63a1,1,0,0,1,.65-.94l11-4.07a1.05,1.05,0,0,1,.7,0l11,4.07a1,1,0,0,1,.65.94V48.55C62.44,48.68,62.3,61.26,50.44,61.26Zm-10-24.93V47.8c0,.47.14,11.46,10,11.46s10-10.27,10-10.71V36.33l-10-3.71Z" style="fill: rgb(255, 255, 255);"></path>
      <path class="cls-2" d="M50.44,57.52c-6.36,0-7.92-8.07-8-8.41a.55.55,0,0,1,0-.18V38.57a1,1,0,0,1,.63-.93l7-2.76a1,1,0,0,1,.74,0l7,2.76a1,1,0,0,1,.63.93V48.93a1.1,1.1,0,0,1,0,.18C58.36,49.45,56.8,57.52,50.44,57.52Zm-6-8.69c.16.76,1.59,6.69,6,6.69s5.84-5.92,6-6.69V39.25l-6-2.36-6,2.36Z" style="fill: rgb(255, 255, 255);"></path>
    </g>
  </g>
</g>
</svg>
